<svg width="20" height="20" viewBox="0 0 20 20" fill="none" xmlns="http://www.w3.org/2000/svg">
<path d="M10 18.7891L9.53008 18.2797C9.37695 18.1137 5.7668 14.1984 4.91016 13.2188C4.1293 12.3258 3.43125 11.0902 3.17344 10.1441C3.00781 9.54063 2.92383 8.91289 2.92383 8.27969C2.92383 4.38789 6.09805 1.2168 9.99961 1.21094C13.9031 1.2168 17.0773 4.3875 17.0773 8.27969C17.0773 8.91289 16.9934 9.54062 16.8273 10.1449C16.5695 11.0902 15.8715 12.3258 15.0906 13.2188C14.2336 14.1988 10.6238 18.1137 10.4707 18.2797L10 18.7891ZM9.99922 2.48945C6.80352 2.49414 4.20195 5.09141 4.20195 8.27969C4.20195 8.79844 4.2707 9.31211 4.40625 9.80664C4.61484 10.5719 5.21797 11.6285 5.87227 12.3773C6.5457 13.1477 8.96523 15.7793 9.99961 16.9031C11.0344 15.7793 13.4535 13.1477 14.127 12.3773C14.7816 11.6289 15.3844 10.5719 15.593 9.80781C15.7289 9.3125 15.7977 8.79883 15.7977 8.28008C15.798 5.09141 13.1965 2.49414 9.99922 2.48945Z" fill="#FF1949"/>
<path d="M10.0004 11.7898C8.00547 11.7898 6.38281 10.1707 6.38281 8.18008C6.38281 6.18945 8.00586 4.57031 10.0004 4.57031C11.9949 4.57031 13.618 6.18945 13.618 8.18008C13.618 10.1707 11.9953 11.7898 10.0004 11.7898ZM10.0004 5.84922C8.71055 5.84922 7.66133 6.89492 7.66133 8.18047C7.66133 9.46602 8.71055 10.5117 10.0004 10.5117C11.2902 10.5117 12.3395 9.46602 12.3395 8.18047C12.3395 6.89492 11.2902 5.84922 10.0004 5.84922Z" fill="#FF1949"/>
</svg>
