<svg width="40" height="40" viewBox="0 0 40 40" fill="none" xmlns="http://www.w3.org/2000/svg">
<path d="M30.9367 36.0762L28.0117 35.3262L26.7117 38.0387C26.2492 38.9887 24.8992 38.9887 24.4492 38.0262L21.8242 32.4012C24.8617 32.0762 27.6617 30.9387 29.9992 29.2262L32.3742 34.3262C32.8242 35.2887 31.9617 36.3262 30.9367 36.0762Z" fill="white"/>
<path d="M18.1762 32.4012L15.5512 38.0262C15.1012 38.9887 13.7512 38.9887 13.2887 38.0387L11.9887 35.3262L9.06369 36.0762C8.03869 36.3262 7.17619 35.2887 7.62619 34.3262L10.0012 29.2262C12.3387 30.9387 15.1387 32.0762 18.1762 32.4012Z" fill="white"/>
<path d="M20 1.25C12.0613 1.25 5.625 7.68625 5.625 15.625C5.625 23.5637 12.0613 30 20 30C27.9387 30 34.375 23.5637 34.375 15.625C34.375 7.68625 27.9387 1.25 20 1.25ZM26.4862 15.2887L24.175 17.5413L24.72 20.7225C24.9 21.7712 23.7987 22.5725 22.8563 22.0762L20 20.575L17.1438 22.0762C16.2013 22.5712 15.1 21.7712 15.28 20.7225L15.825 17.5413L13.5138 15.2887C12.7512 14.545 13.1725 13.2512 14.2262 13.0975L17.42 12.6338L18.8488 9.74C19.32 8.785 20.6813 8.785 21.1525 9.74L22.5813 12.6338L25.775 13.0975C26.8288 13.25 27.2488 14.545 26.4875 15.2887H26.4862Z" fill="white"/>
</svg>
