<svg width="40" height="40" viewBox="0 0 40 40" fill="none" xmlns="http://www.w3.org/2000/svg">
<path fill-rule="evenodd" clip-rule="evenodd" d="M31.275 11.9922V8.48516L20.6203 5.63047C20.3703 5.56406 20.2219 5.30703 20.2891 5.05703C20.3555 4.80703 20.6125 4.65859 20.8625 4.72578L31.8406 7.66719C32.0531 7.71172 32.2133 7.9 32.2133 8.12578V11.9914L33.9828 15.2945C34.1039 15.5219 34.018 15.8047 33.7906 15.9266C33.7203 15.9641 33.6453 15.9813 33.5711 15.9813V15.9828H29.918C29.6594 15.9828 29.4492 15.7727 29.4492 15.5141C29.4492 15.4188 29.4773 15.3305 29.5258 15.257L31.275 11.9922ZM25.1648 34.9508C24.6133 35.9922 23.9797 36.8391 23.2891 37.475C24.7383 37.0719 26.0789 36.4039 27.2531 35.5242C26.6805 35.0977 26.0719 34.7242 25.4367 34.4078C25.3492 34.593 25.2586 34.7742 25.1648 34.9508ZM20.5516 33.1555C21.9406 33.2102 23.3047 33.507 24.5812 34.0227C24.5023 34.1891 24.4211 34.3523 24.3367 34.5117C23.2906 36.4859 21.9609 37.6609 20.5516 37.875V33.1555ZM15.8289 34.5117C16.875 36.4859 18.2047 37.6609 19.6141 37.875V33.1555C18.225 33.2102 16.8609 33.507 15.5836 34.0227C15.6633 34.1891 15.7445 34.3523 15.8289 34.5117ZM14.7289 34.4078C14.8164 34.593 14.907 34.7742 15.0008 34.9508C15.5523 35.9922 16.1859 36.8391 16.8766 37.475C15.4273 37.0719 14.0867 36.4039 12.9125 35.5242C13.4852 35.0977 14.0937 34.7242 14.7289 34.4078ZM14.3555 33.5469C13.5328 31.475 13.0672 29 13.0172 26.3922H8.10547C8.23672 29.7813 9.78047 32.8141 12.1648 34.9156C12.85 34.3852 13.5844 33.9273 14.3555 33.5469ZM19.6141 32.218C18.0961 32.2727 16.6047 32.5961 15.2109 33.1625C14.4406 31.2086 14.0039 28.8672 13.9547 26.3922H19.6141V32.218ZM24.9547 33.1625C25.725 31.2086 26.1617 28.8672 26.2102 26.3922H20.5516V32.218C22.0695 32.2727 23.5609 32.5961 24.9547 33.1625ZM32.0602 26.3922C31.9289 29.7813 30.3852 32.8141 28.0008 34.9156C27.3156 34.3852 26.5813 33.9273 25.8102 33.5469C26.6328 31.475 27.0984 29 27.1484 26.3922H32.0602ZM25.9016 18.5391C26.6734 20.5789 27.1008 22.9516 27.1484 25.4547H32.0602C31.9367 22.3 30.5719 19.318 28.2609 17.1594C27.4969 17.7063 26.7148 18.1656 25.9016 18.5391ZM20.5516 19.7961C22.1727 19.7156 23.6508 19.4227 25.0359 18.9C25.7609 20.8289 26.1641 23.0766 26.2109 25.4547H20.5516V19.7961ZM15.1297 18.9C14.4047 20.8289 14.0016 23.0766 13.9547 25.4547H19.6141V19.7961C17.993 19.7156 16.5148 19.4227 15.1297 18.9ZM13.0172 25.4547H8.10547C8.22891 22.3 9.59375 19.3172 11.9047 17.1594C12.6687 17.7063 13.4508 18.1656 14.2633 18.5391C13.4922 20.5789 13.0648 22.9516 13.0172 25.4547ZM27.8234 15.0781C25.5297 16.6055 23.05 17.357 20.0945 17.4305C20.0906 17.4305 20.0867 17.4305 20.0828 17.4305C20.0789 17.4305 20.075 17.4305 20.0711 17.4305C17.1156 17.357 14.6359 16.6055 12.3422 15.0781V16.3195C14.6539 18.0086 17.0523 18.7984 20.0828 18.8758C23.1133 18.7984 25.5117 18.0086 27.8234 16.3195V15.0781ZM12.3422 13.9359C14.6539 15.625 17.0523 16.4156 20.0828 16.493C23.1133 16.4156 25.5117 15.625 27.8234 13.9359V10.9187L20.243 13.6789C20.1914 13.6977 20.1367 13.707 20.0828 13.707C20.0289 13.707 19.9742 13.6977 19.9227 13.6789L12.3422 10.9187V13.9359ZM20.0828 2.16016L5.55469 7.44922L20.0828 12.7391L30.6445 8.89375L20.4758 6.16953C19.9313 6.02344 19.6039 5.45859 19.75 4.91328C19.8953 4.36797 20.4617 4.04063 21.0062 4.18672L31.9727 7.125C32.4359 7.23047 32.768 7.64219 32.7711 8.11953L34.6109 7.44922L20.0828 2.16016ZM32.2453 14.0297L31.7437 13.0938L30.6984 15.0453H32.7898L32.2453 14.0297Z" fill="white"/>
</svg>
