<svg width="40" height="40" viewBox="0 0 40 40" fill="none" xmlns="http://www.w3.org/2000/svg">
<path d="M27.7181 27.7166C25.657 29.7778 22.9165 30.9129 20.0016 30.9129C17.0868 30.9129 14.3463 29.7778 12.2851 27.7166C11.9226 27.3541 11.5917 26.9718 11.291 26.5739H7.29688C7.9244 27.2235 8.80187 28.124 8.80187 28.124L11.0058 32.3585L15.7138 33.1486L19.9855 35.2799L24.2591 33.1528L28.9657 32.3629L31.1773 28.1335C31.1773 28.1335 32.0605 27.2266 32.6903 26.5739H28.7121C28.4115 26.9718 28.0807 27.3541 27.7181 27.7166Z" fill="white"/>
<path d="M12.2815 12.2835C14.3426 10.2224 17.0831 9.0872 19.998 9.0872C22.9128 9.0872 25.6533 10.2224 27.7145 12.2835C28.077 12.646 28.4079 13.0283 28.7086 13.4263H32.6825C32.055 12.7766 31.1775 11.8761 31.1775 11.8761L28.9736 7.64162L24.2656 6.85154L19.9939 4.72021L15.7203 6.84732L11.0137 7.63726L8.80207 11.8666C8.80207 11.8666 7.91883 12.7735 7.28906 13.4263H11.2874C11.5881 13.0283 11.9189 12.646 12.2815 12.2835Z" fill="white"/>
<path d="M20.0024 11.1262C17.6322 11.1262 15.4038 12.0493 13.7277 13.7253C10.2679 17.1852 10.2679 22.8148 13.7277 26.2748C15.4038 27.9508 17.6321 28.8739 20.0024 28.8739C22.3727 28.8739 24.6011 27.9508 26.2771 26.2748C29.737 22.8148 29.737 17.1852 26.2771 13.7253C24.6011 12.0493 22.3726 11.1262 20.0024 11.1262ZM18.616 24.319L14.9881 20.691L16.4796 19.1996L18.616 21.336L23.5252 16.4269L25.0167 17.9184L18.616 24.319Z" fill="white"/>
<path d="M30.0039 15.4653C31.303 18.3391 31.303 21.6611 30.0039 24.5348H38.0005L36.6178 20.0001L38.0005 15.4653H30.0039Z" fill="white"/>
<path d="M9.99655 15.4653H2L3.31474 20.0001L2 24.5348H9.99655C8.69757 21.6611 8.6975 18.3391 9.99655 15.4653Z" fill="white"/>
</svg>
