<svg width="60" height="60" viewBox="0 0 60 60" fill="none" xmlns="http://www.w3.org/2000/svg">
<path fill-rule="evenodd" clip-rule="evenodd" d="M52.5 52.353C54.4891 52.353 56.3968 51.568 57.8033 50.1707C59.2098 48.7734 60 46.8782 60 44.902V33.7256C60 31.7495 59.2098 29.8543 57.8033 28.4569C56.3968 27.0596 54.4891 26.2746 52.5 26.2746H41.25C41.25 23.3104 42.4353 20.4676 44.545 18.3716C46.6548 16.2756 49.5163 15.0981 52.5 15.0981H56.25C57.2446 15.0981 58.1984 14.7056 58.9016 14.007C59.6049 13.3083 60 12.3607 60 11.3726C60 10.3846 59.6049 9.43698 58.9016 8.73831C58.1984 8.03965 57.2446 7.64714 56.25 7.64714H52.5C47.5272 7.64714 42.7581 9.60967 39.2417 13.103C35.7254 16.5963 33.75 21.3343 33.75 26.2746V44.902C33.75 46.8782 34.5402 48.7734 35.9467 50.1707C37.3532 51.568 39.2609 52.353 41.25 52.353H52.5ZM18.75 52.353C20.7391 52.353 22.6468 51.568 24.0533 50.1707C25.4598 48.7734 26.25 46.8782 26.25 44.902V33.7256C26.25 31.7495 25.4598 29.8543 24.0533 28.4569C22.6468 27.0596 20.7391 26.2746 18.75 26.2746H7.5C7.5 23.3104 8.68526 20.4676 10.795 18.3716C12.9048 16.2756 15.7663 15.0981 18.75 15.0981H22.5C23.4946 15.0981 24.4484 14.7056 25.1516 14.007C25.8549 13.3083 26.25 12.3607 26.25 11.3726C26.25 10.3846 25.8549 9.43698 25.1516 8.73831C24.4484 8.03965 23.4946 7.64714 22.5 7.64714H18.75C13.7772 7.64714 9.00806 9.60967 5.49175 13.103C1.97544 16.5963 0 21.3343 0 26.2746V44.902C0 46.8782 0.790176 48.7734 2.1967 50.1707C3.60322 51.568 5.51088 52.353 7.5 52.353H18.75Z" fill="#FF1949"/>
</svg>
