<svg width="24" height="24" viewBox="0 0 24 24" fill="none" xmlns="http://www.w3.org/2000/svg">
<path d="M8.16667 16.1665C7.93667 16.1665 7.75 15.9799 7.75 15.7499V6.16654C7.75 5.24738 8.4975 4.49988 9.41667 4.49988C10.3358 4.49988 11.0833 5.24738 11.0833 6.16654V14.9165C11.0833 15.1465 10.8967 15.3332 10.6667 15.3332C10.4367 15.3332 10.25 15.1465 10.25 14.9165V6.16654C10.25 5.70654 9.87667 5.33321 9.41667 5.33321C8.95667 5.33321 8.58333 5.70654 8.58333 6.16654V15.7499C8.58333 15.9799 8.39667 16.1665 8.16667 16.1665Z" fill="#0D2C50"/>
<path d="M13.1667 15.3332C12.9367 15.3332 12.75 15.1465 12.75 14.9165V11.1665C12.75 10.7065 12.3767 10.3332 11.9167 10.3332C11.4567 10.3332 11.0833 10.7065 11.0833 11.1665C11.0833 11.3965 10.8967 11.5832 10.6667 11.5832C10.4367 11.5832 10.25 11.3965 10.25 11.1665C10.25 10.2474 10.9975 9.49988 11.9167 9.49988C12.8358 9.49988 13.5833 10.2474 13.5833 11.1665V14.9165C13.5833 15.1465 13.3967 15.3332 13.1667 15.3332Z" fill="#0D2C50"/>
<path d="M15.6667 15.3333C15.4367 15.3333 15.25 15.1466 15.25 14.9166V11.9999C15.25 11.5399 14.8767 11.1666 14.4167 11.1666C13.9567 11.1666 13.5833 11.5399 13.5833 11.9999C13.5833 12.2299 13.3967 12.4166 13.1667 12.4166C12.9367 12.4166 12.75 12.2299 12.75 11.9999C12.75 11.0808 13.4975 10.3333 14.4167 10.3333C15.3358 10.3333 16.0833 11.0808 16.0833 11.9999V14.9166C16.0833 15.1466 15.8967 15.3333 15.6667 15.3333Z" fill="#0D2C50"/>
<path d="M14.8338 21.9998H10.0113C8.60881 21.9998 7.16214 21.389 6.13964 20.3657C5.01131 19.2365 4.41548 17.6257 4.41798 15.709C4.41881 14.124 5.74464 12.8332 7.37214 12.8332H8.16714C8.39714 12.8332 8.58381 13.0198 8.58381 13.2498C8.58381 13.4798 8.39714 13.6665 8.16714 13.6665H7.37214C6.20381 13.6665 5.25214 14.584 5.25131 15.7098C5.24964 17.4248 5.74714 18.7923 6.72881 19.7765C7.75298 20.8015 9.09548 21.1665 10.0113 21.1665H14.8338C16.4421 21.1665 17.7505 19.8582 17.7505 18.2498V12.8332C17.7505 12.3732 17.3771 11.9998 16.9171 11.9998C16.4571 11.9998 16.0838 12.3732 16.0838 12.8332C16.0838 13.0632 15.8971 13.2498 15.6671 13.2498C15.4371 13.2498 15.2505 13.0632 15.2505 12.8332C15.2505 11.914 15.998 11.1665 16.9171 11.1665C17.8363 11.1665 18.5838 11.914 18.5838 12.8332V18.2498C18.5838 20.3173 16.9013 21.9998 14.8338 21.9998Z" fill="#0D2C50"/>
<path d="M12.3333 8.93321C12.2408 8.93321 12.1467 8.90238 12.07 8.83904C11.8917 8.69321 11.8658 8.43154 12.0117 8.25321C12.4942 7.66154 12.75 6.93988 12.75 6.16654C12.75 4.32821 11.255 2.83321 9.41667 2.83321C7.57833 2.83321 6.08333 4.32821 6.08333 6.16654C6.08333 6.93988 6.33917 7.66154 6.8225 8.25321C6.96833 8.43154 6.9425 8.69321 6.76417 8.83904C6.58667 8.98571 6.32417 8.95904 6.17833 8.78071C5.57083 8.03821 5.25 7.13404 5.25 6.16654C5.25 3.86904 7.11917 1.99988 9.41667 1.99988C11.7142 1.99988 13.5833 3.86904 13.5833 6.16654C13.5833 7.13404 13.2625 8.03821 12.6558 8.78071C12.5733 8.88154 12.4542 8.93321 12.3333 8.93321Z" fill="#0D2C50"/>
</svg>
