<svg width="101" height="100" viewBox="0 0 101 100" fill="none" xmlns="http://www.w3.org/2000/svg">
<path d="M47.1183 9.14313C53.9672 9.14267 60.6779 11.0703 66.4824 14.7056C72.2869 18.3408 76.9506 23.5366 79.9399 29.6986C82.9292 35.8605 84.1232 42.7394 83.3854 49.5482C82.6475 56.357 80.0076 62.8206 75.7677 68.1991L91.4399 83.8707C92.2216 84.6801 92.6541 85.764 92.6444 86.8892C92.6346 88.0143 92.1833 89.0906 91.3876 89.8863C90.592 90.6819 89.5156 91.1332 88.3904 91.143C87.2652 91.1527 86.1812 90.7202 85.3718 89.9385L69.6997 74.2669C65.1312 77.8671 59.7681 80.3226 54.0576 81.4286C48.3471 82.5346 42.455 82.259 36.8727 80.6248C31.2904 78.9906 26.1798 76.0452 21.9674 72.0343C17.7551 68.0234 14.5629 63.0634 12.6574 57.5679C10.7519 52.0725 10.1883 46.2011 11.0135 40.4436C11.8388 34.6861 14.029 29.2093 17.4014 24.4704C20.7738 19.7314 25.2307 15.8676 30.4001 13.2013C35.5696 10.5351 41.3017 9.14362 47.1183 9.14313ZM47.1183 17.7256C39.7203 17.7256 32.6254 20.6643 27.3942 25.8953C22.1631 31.1262 19.2242 38.2209 19.2242 45.6186C19.2242 53.0163 22.1631 60.111 27.3942 65.342C32.6254 70.573 39.7203 73.5117 47.1183 73.5117C54.5163 73.5117 61.6113 70.573 66.8424 65.342C72.0736 60.111 75.0124 53.0163 75.0124 45.6186C75.0124 38.2209 72.0736 31.1262 66.8424 25.8953C61.6113 20.6643 54.5163 17.7256 47.1183 17.7256ZM47.1183 22.0168C53.3781 22.0168 59.3816 24.5034 63.8079 28.9296C68.2343 33.3558 70.721 39.3591 70.721 45.6186C70.721 51.8782 68.2343 57.8814 63.8079 62.3076C59.3816 66.7338 53.3781 69.2204 47.1183 69.2204C40.8585 69.2204 34.8551 66.7338 30.4287 62.3076C26.0023 57.8814 23.5156 51.8782 23.5156 45.6186C23.5156 39.3591 26.0023 33.3558 30.4287 28.9296C34.8551 24.5034 40.8585 22.0168 47.1183 22.0168Z" fill="#404A56"/>
<path d="M46.6445 22.1431C53.0097 22.1431 59.1142 24.619 63.6151 29.0261C68.116 33.4332 70.6445 39.4105 70.6445 45.6431C70.6445 51.8757 68.116 57.853 63.6151 62.2601C59.1142 66.6672 53.0097 69.1431 46.6445 69.1431C40.2793 69.1431 34.1748 66.6672 29.674 62.2601C25.1731 57.853 22.6445 51.8757 22.6445 45.6431C22.6445 39.4105 25.1731 33.4332 29.674 29.0261C34.1748 24.619 40.2793 22.1431 46.6445 22.1431Z" fill="#D9D9D9"/>
</svg>
