<svg width="101" height="100" viewBox="0 0 101 100" fill="none" xmlns="http://www.w3.org/2000/svg">
<path d="M45.9582 8.61252C48.9021 7.60458 52.0976 7.60458 55.0415 8.61252C59.1707 10.0229 66.8082 12.7854 77.9519 17.4271C85.9727 20.7709 91.6623 23.3584 95.4936 25.1938C97.9915 26.3896 99.4248 28.7459 99.4248 31.25C99.4248 33.7542 97.9915 36.1104 95.4915 37.3063C91.6623 39.1396 85.9727 41.7292 77.9519 45.0729C66.8082 49.7146 59.1707 52.4771 55.0415 53.8854C52.0976 54.8934 48.9021 54.8934 45.9582 53.8854C41.829 52.4771 34.1915 49.7146 23.0477 45.0729C20.0325 43.8185 17.0302 42.533 14.0415 41.2167V74.4917C16.1236 75.2318 17.8776 76.6832 18.9942 78.5902C20.1107 80.4971 20.5181 82.7371 20.1444 84.915C19.7708 87.0929 18.6402 89.069 16.952 90.4948C15.2637 91.9206 13.1263 92.7045 10.9165 92.7084C8.70355 92.7103 6.56128 91.9293 4.86876 90.5036C3.17624 89.0779 2.0426 87.0995 1.66844 84.9184C1.29428 82.7374 1.70373 80.4942 2.82434 78.586C3.94494 76.6778 5.70444 75.2274 7.7915 74.4917V38.3875C6.9665 38.0028 6.20539 37.6424 5.50816 37.3063C3.00816 36.1104 1.57483 33.7542 1.57483 31.25C1.57483 28.7459 3.00816 26.3896 5.50816 25.1938C9.33733 23.3584 15.0269 20.7709 23.0498 17.4271C34.1915 12.7854 41.829 10.0229 45.9603 8.61461" fill="#002147"/>
<path d="M43.941 58.7459C35.957 56.0173 28.0691 53.0155 20.291 49.7459V50.3479C20.291 56.8938 20.6264 61.0854 20.9764 63.6813C21.391 66.7563 23.1827 69.4584 26.0118 70.9396C30.1098 73.0834 38.0348 76.0417 50.4994 76.0417C62.9639 76.0417 70.8889 73.0834 74.9869 70.9375C77.816 69.4584 79.6098 66.7563 80.0223 63.6813C80.3723 61.0854 80.7077 56.8938 80.7077 50.3479V49.7438C72.9296 53.0135 65.0417 56.0152 57.0577 58.7438C52.8063 60.1974 48.1924 60.1995 43.941 58.7459Z" fill="#D9D9D9"/>
</svg>
