<svg width="101" height="100" viewBox="0 0 101 100" fill="none" xmlns="http://www.w3.org/2000/svg">
<path d="M43.9025 85.0105C46.0235 86.7886 48.2355 88.4139 50.5 90C52.7694 88.4349 54.9706 86.7702 57.0975 85.0105C60.643 82.0524 63.9797 78.845 67.083 75.412C74.237 67.4636 82 55.9412 82 43.0068C82 38.8036 81.1852 34.6416 79.6022 30.7584C78.0192 26.8751 75.6989 23.3467 72.7739 20.3746C69.8488 17.4025 66.3763 15.0449 62.5545 13.4364C58.7328 11.8279 54.6366 11 50.5 11C46.3634 11 42.2672 11.8279 38.4455 13.4364C34.6237 15.0449 31.1512 17.4025 28.2261 20.3746C25.3011 23.3467 22.9808 26.8751 21.3978 30.7584C19.8148 34.6416 19 38.8036 19 43.0068C19 55.9412 26.763 67.4601 33.917 75.412C37.0202 78.8462 40.3569 82.0513 43.9025 85.0105ZM50.5 54.5649C47.4832 54.5649 44.5899 53.3471 42.4567 51.1796C40.3234 49.012 39.125 46.0722 39.125 43.0068C39.125 39.9415 40.3234 37.0016 42.4567 34.8341C44.5899 32.6665 47.4832 31.4488 50.5 31.4488C53.5168 31.4488 56.4101 32.6665 58.5433 34.8341C60.6766 37.0016 61.875 39.9415 61.875 43.0068C61.875 46.0722 60.6766 49.012 58.5433 51.1796C56.4101 53.3471 53.5168 54.5649 50.5 54.5649Z" fill="#002147"/>
</svg>
