<svg width="101" height="100" viewBox="0 0 101 100" fill="none" xmlns="http://www.w3.org/2000/svg">
<path fill-rule="evenodd" clip-rule="evenodd" d="M13 18.75C13 17.0924 13.6585 15.5027 14.8306 14.3306C16.0027 13.1585 17.5924 12.5 19.25 12.5H81.75C83.4076 12.5 84.9973 13.1585 86.1694 14.3306C87.3415 15.5027 88 17.0924 88 18.75V81.25C88 82.9076 87.3415 84.4973 86.1694 85.6694C84.9973 86.8415 83.4076 87.5 81.75 87.5H19.25C17.5924 87.5 16.0027 86.8415 14.8306 85.6694C13.6585 84.4973 13 82.9076 13 81.25V18.75ZM45.3333 30.3792H35.9167V69.5812H45.3333V30.3792ZM45.3333 26.2125H31.75V73.7479H45.3333V77.5271C45.3337 77.8568 45.4123 78.1817 45.5627 78.4751C45.713 78.7685 45.9309 79.022 46.1983 79.2148C46.4658 79.4076 46.7752 79.5341 47.101 79.5841C47.4269 79.634 47.76 79.6059 48.0729 79.5021L66.5417 73.3458C66.9563 73.2077 67.3171 72.9427 67.5728 72.5882C67.8285 72.2338 67.9663 71.8079 67.9667 71.3708V29.1021C67.9668 28.6647 67.8292 28.2383 67.5734 27.8834C67.3177 27.5286 66.9567 27.2632 66.5417 27.125L48.0729 20.9687C47.7596 20.8644 47.4259 20.836 47.0994 20.886C46.7729 20.9359 46.463 21.0628 46.1952 21.2561C45.9274 21.4495 45.7094 21.7037 45.5592 21.9978C45.409 22.292 45.3308 22.6176 45.3312 22.9479L45.3333 26.2125ZM54.3854 48.7271C54.3854 50.3937 53.7104 51.7458 52.8771 51.7458C52.0438 51.7458 51.3667 50.3937 51.3667 48.7271C51.3667 47.0604 52.0438 45.7083 52.8771 45.7083C53.7104 45.7083 54.3854 47.0583 54.3854 48.7271Z" fill="#002147"/>
<path fill-rule="evenodd" clip-rule="evenodd" d="M45.3327 30.3792H35.916V69.5812H45.3327V30.3792ZM54.3848 48.7271C54.3848 50.3937 53.7098 51.7458 52.8764 51.7458C52.0431 51.7458 51.366 50.3937 51.366 48.7271C51.366 47.0604 52.0431 45.7083 52.8764 45.7083C53.7098 45.7083 54.3848 47.0583 54.3848 48.7271Z" fill="#D9D9D9"/>
</svg>
