<svg width="101" height="100" viewBox="0 0 101 100" fill="none" xmlns="http://www.w3.org/2000/svg">
<rect x="19" y="20" width="62" height="36" fill="white"/>
<path d="M19 12.5C15.6863 12.5 13 15.1863 13 18.5V81.5C13 84.8137 15.6863 87.5 19 87.5H82C85.3137 87.5 88 84.8137 88 81.5V18.5C88 15.1863 85.3137 12.5 82 12.5H19ZM75.5 72.9167C75.5 74.0673 74.5673 75 73.4167 75H27.5833C26.4327 75 25.5 74.0673 25.5 72.9167C25.5 71.7661 26.4327 70.8333 27.5833 70.8333H73.4167C74.5673 70.8333 75.5 71.7661 75.5 72.9167ZM75.5 64.5833C75.5 65.7339 74.5673 66.6667 73.4167 66.6667H27.5833C26.4327 66.6667 25.5 65.7339 25.5 64.5833C25.5 63.4327 26.4327 62.5 27.5833 62.5H73.4167C74.5673 62.5 75.5 63.4327 75.5 64.5833ZM75.5 44C75.5 47.3137 72.8137 50 69.5 50H31.5C28.1863 50 25.5 47.3137 25.5 44V31C25.5 27.6863 28.1863 25 31.5 25H69.5C72.8137 25 75.5 27.6863 75.5 31V44Z" fill="#002147"/>
</svg>
