<svg width="101" height="100" viewBox="0 0 101 100" fill="none" xmlns="http://www.w3.org/2000/svg">
<path d="M50 87C70.4341 87 87 70.4341 87 50C87 29.5659 70.4341 13 50 13C29.5659 13 13 29.5659 13 50C13 70.4341 29.5659 87 50 87ZM49.4147 49.63C50.8678 47.8473 52.6909 46.3538 54.1575 45.1967C54.9762 44.5511 55.6337 43.7239 56.078 42.7806C56.5223 41.8373 56.7412 40.8036 56.7175 39.7612C56.6937 38.7187 56.428 37.6961 55.9413 36.774C55.4546 35.8518 54.7601 35.0555 53.9128 34.4477C53.0655 33.84 52.0886 33.4375 51.0591 33.2721C50.0296 33.1067 48.9757 33.1829 47.9807 33.4947C46.9857 33.8064 46.0767 34.3452 45.3256 35.0684C44.5746 35.7917 44.0019 36.6796 43.6528 37.6622L42.5361 40.8375L36.1923 38.5973L37.3124 35.4254C38.0068 33.4561 39.1499 31.6755 40.6514 30.2243C42.1528 28.7731 43.9713 27.6912 45.9631 27.0642C47.9548 26.4371 50.0651 26.2822 52.1271 26.6116C54.1891 26.9409 56.1461 27.7456 57.8434 28.9619C59.5407 30.1782 60.9317 31.7728 61.9063 33.6195C62.8809 35.4662 63.4124 37.5144 63.4588 39.602C63.5052 41.6896 63.0652 43.7593 62.1736 45.6475C61.282 47.5357 59.9632 49.1905 58.3216 50.481C56.8719 51.6246 55.5735 52.7212 54.6351 53.8749C53.7135 55.0118 53.3636 55.9267 53.3636 56.7273V60.9318H46.6364V56.7273C46.6364 53.811 47.9482 51.4363 49.4147 49.63ZM46.6364 71.0362V64.2955H53.3771V71.0362H46.6364Z" fill="#002147"/>
</svg>
