<svg width="64" height="64" viewBox="0 0 64 64" fill="none" xmlns="http://www.w3.org/2000/svg">
<path d="M18.746 13.3086H31.4361C33.2534 9.23568 36.449 5.94225 36.4758 5.88867C36.9855 5.41289 37.1215 4.69922 36.8496 4.05352C36.5779 3.40781 35.9661 3 35.2864 3C32.2278 3 30.5626 4.0875 29.2372 4.97109C28.0478 5.78672 27.1302 6.39844 25.0911 6.39844C23.0521 6.39844 22.1345 5.78672 20.945 4.97109C19.6196 4.0875 17.9544 3 14.8958 3C14.2161 3 13.6044 3.40781 13.3325 4.05352C13.0607 4.69922 13.1966 5.41289 13.7064 5.88867C13.7332 5.94225 16.9288 9.23568 18.746 13.3086Z" fill="#002147"/>
<path d="M37.0977 55.9023V59.3008C37.0977 60.2392 37.8585 61 38.7969 61H59.3008C60.2392 61 61 60.2392 61 59.3008V55.9023C61 54.9639 60.2392 54.2031 59.3008 54.2031H38.7969C37.8585 54.2031 37.0977 54.9639 37.0977 55.9023Z" fill="#FF1949"/>
<path d="M61 49.1055V45.707C61 44.7686 60.2392 44.0078 59.3008 44.0078H38.7969C37.8585 44.0078 37.0977 44.7686 37.0977 45.707V49.1055C37.0977 50.0439 37.8585 50.8047 38.7969 50.8047H59.3008C60.2392 50.8047 61 50.0439 61 49.1055Z" fill="#FF1949"/>
<path d="M36.8824 30.482C33.552 27.2195 30.8332 24.4555 30.2894 20.1055H31.8867C32.8383 20.1055 33.5859 19.3578 33.5859 18.4062C33.5859 17.4547 32.8383 16.707 31.8867 16.707H18.293C17.3414 16.707 16.5937 17.4547 16.5937 18.4062C16.5937 19.3578 17.3414 20.1055 18.293 20.1055H19.8902C19.3465 24.4555 16.6277 27.2195 13.2973 30.482C8.47148 35.2059 3 40.5754 3 52.8438C3.06797 57.3297 6.9082 61 11.4961 61H33.8986C33.7083 60.4664 33.5859 59.8989 33.5859 59.3008V45.707C33.5859 42.8965 35.8731 40.6094 38.6836 40.6094H44.7702C42.7141 36.2027 39.6646 33.2121 36.8824 30.482ZM25.0898 40.6094C27.9008 40.6094 30.1875 42.8961 30.1875 45.707C30.1875 47.9194 28.7626 49.7879 26.7891 50.4917V52.5039C26.7891 53.4431 26.0291 54.2031 25.0898 54.2031C24.1506 54.2031 23.3906 53.4431 23.3906 52.5039V50.4917C21.417 49.788 19.9922 47.9194 19.9922 45.707C19.9922 44.7678 20.7522 44.0078 21.6914 44.0078C22.6306 44.0078 23.3906 44.7678 23.3906 45.707C23.3906 46.6445 24.1523 47.4062 25.0898 47.4062C26.0274 47.4062 26.7891 46.6445 26.7891 45.707C26.7891 44.7695 26.0274 44.0078 25.0898 44.0078C22.2789 44.0078 19.9922 41.7211 19.9922 38.9102C19.9922 36.6978 21.417 34.8293 23.3906 34.1255V32.1133C23.3906 31.1741 24.1506 30.4141 25.0898 30.4141C26.0291 30.4141 26.7891 31.1741 26.7891 32.1133V34.1255C28.7626 34.8292 30.1875 36.6978 30.1875 38.9102C30.1875 39.8494 29.4275 40.6094 28.4883 40.6094C27.5491 40.6094 26.7891 39.8494 26.7891 38.9102C26.7891 37.9726 26.0274 37.2109 25.0898 37.2109C24.1523 37.2109 23.3906 37.9726 23.3906 38.9102C23.3906 39.8477 24.1523 40.6094 25.0898 40.6094Z" fill="#002147"/>
</svg>
