<svg width="64" height="64" viewBox="0 0 64 64" fill="none" xmlns="http://www.w3.org/2000/svg">
<path fill-rule="evenodd" clip-rule="evenodd" d="M28.9332 17.0621L18.4738 10.3919C17.8793 10.0127 17.1122 10.119 16.6429 10.6453L16.5194 10.7838C16.0261 11.3373 16.0373 12.1696 16.5454 12.7096C21.7763 18.271 24.8079 20.8921 26.493 25.7357C26.5059 25.773 26.5344 25.7991 26.5726 25.8086C26.6109 25.818 26.6482 25.8083 26.677 25.7814L32.0099 20.8018C32.0535 20.7611 32.1208 20.7611 32.1644 20.8018L37.4974 25.7814C37.5262 25.8083 37.5635 25.818 37.6018 25.8086C37.64 25.7991 37.6684 25.7731 37.6814 25.7357C39.3666 20.8922 42.398 18.271 47.629 12.7097C48.1372 12.1698 48.1484 11.3374 47.6551 10.7839L47.5316 10.6454C47.0625 10.119 46.2953 10.0128 45.7007 10.392L35.2413 17.0622C33.2728 18.3179 30.9024 18.3179 28.9332 17.0621ZM20.5397 33.8353L32.0103 23.1248C32.0539 23.0841 32.1212 23.0841 32.1648 23.1248L43.6354 33.8353C44.7622 34.8875 45.3387 36.2143 45.3387 37.7561V52.3861C45.3387 54.1682 43.8853 55.6217 42.1031 55.6217H36.5912C36.5289 55.6217 36.478 55.5709 36.478 55.5085V46.282C36.478 43.8673 34.5024 41.8916 32.0876 41.8916C29.6729 41.8916 27.6972 43.8673 27.6972 46.282V55.5085C27.6972 55.5709 27.6464 55.6217 27.5841 55.6217H22.0722C20.29 55.6217 18.8366 54.1682 18.8366 52.3861V37.7561C18.8364 36.2143 19.4128 34.8875 20.5397 33.8353ZM54.414 20.6217C54.8087 21.1521 54.8391 21.7785 54.4251 22.2886C52.1189 25.1289 50.7445 27.9423 50.7445 30.7157C50.7445 34.9946 54.5915 38.4287 57.5846 41.4718C58.0752 41.9706 58.087 42.7661 57.6114 43.2793L57.4964 43.4033C57.0822 43.8503 56.4373 43.9538 55.904 43.6592C52.8875 41.9939 49.9714 41.1929 47.1508 41.2136C47.1194 41.2139 47.0924 41.2029 47.0703 41.1809C47.0482 41.1587 47.0369 41.1318 47.0369 41.1005V37.7558C47.0369 35.7438 46.2651 33.9672 44.7946 32.594L42.5794 30.5255C42.5371 30.4859 42.5313 30.4216 42.566 30.3751C45.5477 26.3828 48.8421 22.9334 52.6209 20.3256C53.2005 19.9257 53.9934 20.0565 54.414 20.6217ZM56.2624 27.1792C53.9157 27.1792 52.0134 29.0815 52.0134 31.4281C52.0134 33.7748 53.9157 35.6771 56.2624 35.6771C58.609 35.6771 60.5113 33.7748 60.5113 31.4281C60.5113 29.0815 58.609 27.1792 56.2624 27.1792ZM9.76099 20.6217C10.1816 20.0565 10.9746 19.9257 11.5545 20.3258C15.3333 22.9337 18.6278 26.383 21.6096 30.3753C21.6443 30.4218 21.6385 30.4862 21.5961 30.5257L19.381 32.5942C17.9104 33.9674 17.1385 35.7441 17.1385 37.7561V41.1007C17.1385 41.1321 17.1273 41.159 17.1051 41.1811C17.083 41.2031 17.0558 41.2141 17.0246 41.2139C14.204 41.1931 11.2879 41.9942 8.27145 43.6594C7.73795 43.954 7.09321 43.8504 6.679 43.4036L6.56393 43.2795C6.08828 42.7664 6.10006 41.9709 6.59068 41.4721C9.58384 38.4291 13.4307 34.9949 13.4307 30.716C13.4307 27.9424 12.0564 25.1291 9.75024 22.2888C9.3359 21.7785 9.36636 21.1521 9.76099 20.6217ZM7.74115 27.341C5.39452 27.341 3.49219 29.2433 3.49219 31.5899C3.49219 33.9366 5.39452 35.8389 7.74115 35.8389C10.0878 35.8389 11.9901 33.9366 11.9901 31.5899C11.9901 29.2433 10.0878 27.341 7.74115 27.341ZM31.9835 8.37842C34.3301 8.37842 36.2324 10.2808 36.2324 12.6274C36.2324 14.974 34.3301 16.8763 31.9835 16.8763C29.6368 16.8763 27.7345 14.974 27.7345 12.6274C27.7345 10.2808 29.6367 8.37842 31.9835 8.37842Z" fill="#002147"/>
<path fill-rule="evenodd" clip-rule="evenodd" d="M31.983 8.37842C34.3296 8.37842 36.2319 10.2808 36.2319 12.6274C36.2319 14.974 34.3296 16.8763 31.983 16.8763C29.6363 16.8763 27.734 14.974 27.734 12.6274C27.734 10.2808 29.6362 8.37842 31.983 8.37842Z" fill="#FF1949"/>
<path fill-rule="evenodd" clip-rule="evenodd" d="M28.9327 17.062L18.4733 10.3918C17.8788 10.0127 17.1117 10.1189 16.6424 10.6453L16.5189 10.7837C16.0256 11.3372 16.0368 12.1696 16.5449 12.7095C21.7759 18.271 24.8074 20.892 26.4925 25.7357C26.5055 25.7729 26.5339 25.799 26.5721 25.8085C26.6104 25.818 26.6477 25.8083 26.6765 25.7814L32.0095 20.8018C32.053 20.7611 32.1203 20.7611 32.1639 20.8018L37.4969 25.7814C37.5257 25.8083 37.563 25.818 37.6013 25.8085C37.6395 25.799 37.6679 25.7731 37.6809 25.7357C39.3661 20.8922 42.3975 18.271 47.6285 12.7096C48.1367 12.1697 48.1479 11.3373 47.6546 10.7839L47.5311 10.6454C47.062 10.1189 46.2948 10.0128 45.7002 10.3919L35.2408 17.0622C33.2723 18.3178 30.9019 18.3178 28.9327 17.062Z" fill="#FF1949"/>
</svg>
