<svg width="64" height="64" viewBox="0 0 64 64" fill="none" xmlns="http://www.w3.org/2000/svg">
<path d="M52.4802 8.25929C52.176 7.90732 51.6414 7.86949 51.2927 8.17376L48.8076 10.3284C48.216 10.8398 48.5859 11.807 49.3585 11.807C49.9077 11.807 49.9166 11.5059 52.3947 9.44679C52.7467 9.14251 52.7845 8.60962 52.4802 8.25929Z" fill="#FF1949"/>
<path d="M50.9199 16.1129C51.0962 16.1129 51.0264 16.1027 53.7225 15.478C54.1748 15.3728 54.4561 14.9188 54.3492 14.4665C54.2439 14.0159 53.7998 13.7264 53.3377 13.8399L50.7275 14.4517C50.2752 14.557 49.9939 15.0109 50.1008 15.4632C50.1913 15.8514 50.5367 16.1129 50.9199 16.1129Z" fill="#FF1949"/>
<path d="M45.6205 5.54716L44.66 7.69519C44.4692 8.11953 44.66 8.61789 45.0843 8.80703C45.4976 8.99543 46.0032 8.81406 46.1962 8.38269L47.1567 6.23466C47.3475 5.81032 47.1567 5.31196 46.7324 5.12282C46.3113 4.92874 45.8113 5.12282 45.6205 5.54716Z" fill="#FF1949"/>
<path d="M47.1313 32.2067C46.3501 30.6376 45.9767 28.9731 46.0195 27.2659L46.1301 23.9073C47.8348 22.8876 47.9032 20.9972 45.3106 19.9616C44.1658 19.5044 42.4537 19.1838 40.4529 19.2803C40.1741 18.4439 39.908 17.7461 39.9574 16.7352C40.0387 15.061 40.1105 13.5342 38.7925 12.4116C39.2917 11.3769 39.3945 9.88183 38.9816 8.25765C38.5524 6.5685 37.6642 5.19186 36.6083 4.57344C36.0408 4.23956 35.4471 4.13923 34.8912 4.29054C34.721 4.33686 10.3334 11.6405 10.1642 11.7001C7.48359 12.4984 5.8269 15.2108 6.61486 17.8349C7.38158 20.3766 10.21 21.8322 12.9652 21.0126L36.5392 13.9879C36.943 15.1627 36.6062 16.2243 36.8673 17.3761C37.0535 18.1958 37.5705 18.2947 37.9327 19.6625C34.6525 20.5669 34.7088 22.667 36.4269 23.7589L36.4257 27.1063C36.4093 28.8201 35.9783 30.4715 35.1445 32.0126L24.3797 51.9106C23.6675 53.2264 23.8682 54.7675 24.8945 55.8366C29.3535 60.4912 46.1754 60.6606 53.3073 58.228C54.7333 57.7099 55.8303 57.0817 56.5688 56.3629C57.6297 55.3284 57.8846 53.7955 57.2168 52.4583L47.1313 32.2067ZM15.5145 16.0897C15.9882 15.9542 16.4796 16.2424 16.6321 16.7165C16.7674 17.2075 16.5137 17.7157 16.0392 17.8512C15.5824 18.0037 15.0737 17.7157 14.9385 17.2245C14.7859 16.7502 15.04 16.2424 15.5145 16.0897ZM20.3751 15.7001C20.2904 15.3954 20.443 15.0905 20.7308 15.006C21.0186 14.9382 21.3065 15.0905 21.4084 15.3954C21.4927 15.6832 21.3406 15.9883 21.0528 16.0726C20.7645 16.1575 20.4767 15.9883 20.3751 15.7001ZM24.9648 14.955C24.8295 14.4639 25.0836 13.9558 25.5577 13.8201C26.0154 13.6849 26.5232 13.9558 26.6584 14.4468C26.7423 14.7176 26.6942 14.9867 26.5626 15.2025L25.4746 15.5266C25.2423 15.4217 25.0495 15.2276 24.9648 14.955ZM11.1445 17.7494C10.4841 17.9361 9.78961 17.5463 9.5869 16.8687C9.38336 16.1914 9.73904 15.4801 10.3994 15.2938C11.0598 15.0905 11.7543 15.4801 11.9578 16.1575C12.1609 16.8518 11.8048 17.5463 11.1445 17.7494ZM37.3501 8.67212C37.6552 9.87669 37.5795 10.8991 37.3163 11.5138L36.0203 11.6298C34.4168 9.95343 34.283 6.66146 35.3205 5.91883C36.0461 5.70542 37.0467 7.48388 37.3501 8.67212ZM33.0791 6.63018C32.7423 8.29918 33.171 10.3308 34.047 11.8066L9.33196 14.0196C10.4147 13.1258 9.41764 13.7949 33.0791 6.63018ZM38.239 21.3201C38.2588 21.4497 38.2748 21.5743 38.2995 21.7075C38.3377 21.9131 38.5425 22.1014 38.7407 22.1487C39.8731 22.4184 40.5785 21.8932 40.7859 20.953C40.955 20.9486 40.997 20.9365 41.3172 20.9435C44.0869 20.9912 45.5655 21.8498 45.6346 22.1573C45.3566 22.608 43.7908 23.2544 41.2793 23.2116C38.8879 23.1721 37.2333 22.4879 36.9553 22.0192C37.0079 21.8555 37.4496 21.5609 38.239 21.3201ZM28.7185 56.2478C26.918 55.5226 24.9563 54.3868 25.8599 52.7132L36.6247 32.8152C37.5902 31.029 38.0902 29.1146 38.1099 27.1146L38.1107 24.4608C39.9866 24.9818 42.3789 25.0615 44.4224 24.5595C44.5001 26.2767 43.738 29.1694 45.6247 32.9567L55.7103 53.2083C58.1316 58.0742 37.8672 59.7665 28.7185 56.2478Z" fill="#002147"/>
<path d="M44.9175 37.1926C44.6806 37.1421 44.4261 37.1926 44.223 37.3283C43.5454 37.8195 42.3093 38.4628 41.7337 38.2599C41.6658 38.2428 41.5133 38.192 41.3945 37.7856C40.729 35.4021 38.4454 35.6697 36.7033 37.413C36.6358 37.4638 36.5848 37.5315 36.5507 37.6162L28.4043 52.6729C28.1658 53.0821 28.3419 53.632 28.76 53.8415C33.692 56.2007 47.0485 56.7758 52.7765 54.2309C53.1519 54.074 53.4137 53.5587 53.1823 53.0964C45.1195 37.141 45.6191 37.3331 44.9175 37.1926ZM36.7033 52.6898H36.6527C34.4112 52.6311 33.495 49.9141 35.0092 48.5064C36.5848 46.9896 39.1424 48.1262 39.1424 50.2848C39.1051 51.7119 37.9529 52.6898 36.7033 52.6898ZM40.8529 45.6273C40.0737 45.6104 39.464 44.9667 39.464 44.2046C39.4808 43.4254 40.1243 42.8156 40.8867 42.8327C41.6658 42.8497 42.2752 43.4764 42.2588 44.2556C42.2588 45.0175 41.6149 45.6439 40.8529 45.6273ZM46.2555 49.8444C45.9677 50.1495 45.5783 50.3016 45.1547 50.3016C43.1287 50.3016 42.9365 47.1846 45.1885 47.1005C46.7034 47.1616 47.2288 48.9732 46.2555 49.8444Z" fill="#FF1949"/>
<path d="M41.3276 33.6277C42.0579 33.6277 42.5069 33.0438 42.6697 32.8316C43.3786 31.904 43.6401 30.2691 43.3194 28.7626C43.0118 27.3119 42.2256 26.177 41.1056 25.5668C40.3467 25.1502 39.5198 26.0331 39.997 26.7675C40.0019 26.7741 40.3868 27.3958 40.2371 28.1836C38.2174 30.0054 39.2712 33.6277 41.3276 33.6277Z" fill="#002147"/>
</svg>
