<svg width="64" height="64" viewBox="0 0 64 64" fill="none" xmlns="http://www.w3.org/2000/svg">
<path d="M8.38281 46.01V51.493C11.4698 50.959 14.4708 50.689 17.3188 50.689C22.1338 50.689 26.7088 51.463 30.9418 52.993V47.572C25.0378 44.878 17.5538 44.355 8.38281 46.01Z" fill="#FF1949"/>
<path d="M31.9243 28.244C31.9503 28.244 31.9763 28.241 32.0023 28.241C32.0273 28.241 32.0503 28.244 32.0753 28.245C37.3803 28.205 41.6843 23.881 41.6843 18.566C41.6843 13.227 37.3413 8.88403 32.0023 8.88403C26.6633 8.88403 22.3203 13.227 22.3203 18.566C22.3203 23.878 26.6213 28.202 31.9243 28.244Z" fill="#002147"/>
<path d="M33.0625 47.572V52.993C39.7985 50.559 47.3135 50.057 55.6215 51.493V46.01C46.4505 44.355 38.9655 44.878 33.0625 47.572Z" fill="#FF1949"/>
<path d="M49.9434 43.125C49.0154 40.434 47.4804 37.968 45.4384 35.926C41.8674 32.355 37.1224 30.383 32.0724 30.364C32.0474 30.364 32.0244 30.368 31.9994 30.368C31.9734 30.368 31.9474 30.364 31.9214 30.364C23.8194 30.397 16.6904 35.563 14.0664 43.123C21.0784 42.551 27.0434 43.426 31.9994 45.737C36.9574 43.425 42.9264 42.551 49.9434 43.125Z" fill="#002147"/>
</svg>
