<svg width="64" height="64" viewBox="0 0 64 64" fill="none" xmlns="http://www.w3.org/2000/svg">
<path d="M33.4704 15.5896L33.0732 15.4344C31.502 14.8512 31.3805 14.6419 31.3805 14.4091C31.3805 14.1044 31.803 13.8997 32.432 13.8997C32.69 13.8997 32.9292 13.9175 33.1395 13.953C33.333 13.9885 33.5311 14.0334 33.7265 14.0885C34.1274 14.1988 34.5443 14.1456 34.9041 13.9399C35.249 13.7427 35.4957 13.4268 35.5967 13.053L35.6733 12.7913C35.8911 11.9828 35.4116 11.1472 34.6022 10.9285C34.3433 10.8594 34.0863 10.807 33.8218 10.7687C33.7396 9.79389 32.9274 9.04431 31.932 9.04431C30.8861 9.04431 30.0356 9.89016 30.0356 10.9304V11.1332C28.5271 11.7837 27.6289 13.0857 27.6289 14.6288C27.6289 16.1896 28.5542 17.3925 30.3786 18.2019C30.6347 18.3196 30.8786 18.4169 31.1207 18.5019C32.6077 19.0318 32.6077 19.3281 32.6077 19.5244C32.6077 20.0777 31.8572 20.1599 31.4104 20.1599C31.1674 20.1599 30.9422 20.1413 30.6973 20.102C30.3356 20.0534 30.0029 19.9768 29.7066 19.8749C29.3038 19.7431 28.8617 19.7852 28.4897 19.9926C28.1215 20.2011 27.8663 20.5394 27.771 20.946L27.6962 21.2404C27.5093 22.0059 27.9476 22.7919 28.6944 23.0302C29.1075 23.1592 29.572 23.262 30.0421 23.3284C30.1272 24.2995 30.9385 25.0462 31.931 25.0462C32.9769 25.0462 33.8274 24.2004 33.8274 23.1592V22.9769C35.421 22.3283 36.3696 20.9759 36.3696 19.3468C36.3715 17.6299 35.449 16.4364 33.4704 15.5896Z" fill="#FF1949"/>
<path d="M32.0005 2.77478C24.1318 2.77478 17.7305 9.17611 17.7305 17.0448C17.7305 24.9135 24.1318 31.3158 32.0005 31.3158C39.8692 31.3158 46.2715 24.9135 46.2715 17.0448C46.2715 9.17611 39.8692 2.77478 32.0005 2.77478ZM32.0005 27.1314C26.4394 27.1314 21.9148 22.6068 21.9148 17.0448C21.9148 11.4837 26.4394 6.95915 32.0005 6.95915C37.5625 6.95915 42.0871 11.4837 42.0871 17.0448C42.0862 22.6068 37.5625 27.1314 32.0005 27.1314Z" fill="#FF1949"/>
<path d="M14.1764 54.2807C12.8857 54.2807 11.8398 53.2349 11.8398 51.9442V31.4588C11.8398 30.1681 12.8857 29.1222 14.1764 29.1222C15.4672 29.1222 16.513 30.1681 16.513 31.4588V51.9442C16.513 53.2349 15.4662 54.2807 14.1764 54.2807Z" fill="#002147"/>
<path d="M26.0592 54.2807C24.7685 54.2807 23.7227 53.2348 23.7227 51.9441V36.1319C23.7227 34.8411 24.7685 33.7953 26.0592 33.7953C27.35 33.7953 28.3958 34.8411 28.3958 36.1319V51.9441C28.3958 53.2348 27.35 54.2807 26.0592 54.2807Z" fill="#002147"/>
<path d="M37.946 54.2807C36.6552 54.2807 35.6094 53.2348 35.6094 51.9441V38.9358C35.6094 37.6451 36.6552 36.5992 37.946 36.5992C39.2367 36.5992 40.2826 37.6451 40.2826 38.9358V51.9441C40.2826 53.2348 39.2367 54.2807 37.946 54.2807Z" fill="#002147"/>
<path d="M49.8249 54.2807C48.5341 54.2807 47.4883 53.2349 47.4883 51.9441V26.7856C47.4883 25.4948 48.5341 24.449 49.8249 24.449C51.1156 24.449 52.1615 25.4948 52.1615 26.7856V51.9441C52.1615 53.2349 51.1156 54.2807 49.8249 54.2807Z" fill="#002147"/>
<path d="M53.1626 61.2251H10.8366C9.54586 61.2251 8.5 60.1792 8.5 58.8885C8.5 57.5977 9.54586 56.5519 10.8366 56.5519H53.1626C54.4533 56.5519 55.4992 57.5977 55.4992 58.8885C55.4992 60.1792 54.4533 61.2251 53.1626 61.2251Z" fill="#002147"/>
</svg>
