<svg width="64" height="64" viewBox="0 0 64 64" fill="none" xmlns="http://www.w3.org/2000/svg">
<path d="M33.1622 21.7282H30.7367C29.6398 21.7282 28.7474 20.7693 28.7474 19.5907C28.7474 18.4121 29.6398 17.4536 30.7367 17.4536H35.5873C36.4982 17.4536 37.2364 16.6604 37.2364 15.6816C37.2364 14.7028 36.4982 13.9096 35.5873 13.9096H33.5981V11.772C33.5981 10.7937 32.8599 10 31.949 10C31.0386 10 30.2999 10.7937 30.2999 11.772V13.9303C27.5883 14.1698 25.4492 16.6161 25.4492 19.5907C25.4492 22.7236 27.8211 25.2723 30.7367 25.2723H33.1622C34.2586 25.2723 35.151 26.2307 35.151 27.4093C35.151 28.5879 34.2586 29.5464 33.1622 29.5464H28.3111C27.4002 29.5464 26.662 30.3401 26.662 31.3184C26.662 32.2972 27.4002 33.0904 28.3111 33.0904H30.2999V35.228C30.2999 36.2067 31.0386 37 31.949 37C32.8599 37 33.5981 36.2067 33.5981 35.228V33.0697C36.3101 32.8306 38.4492 30.3839 38.4492 27.4093C38.4492 24.2769 36.0773 21.7282 33.1622 21.7282Z" fill="#FF1949"/>
<path d="M60.4492 23.4018C60.4492 21.7653 59.601 20.2043 58.122 19.1181L36.8895 3.52298C35.5527 2.54062 33.7982 2 31.949 2C30.0998 2 28.3453 2.54062 27.0084 3.52298L5.77644 19.1181C4.29748 20.2043 3.44922 21.7653 3.44922 23.4018C3.44922 25.0383 4.29748 26.5998 5.77644 27.686L10.8358 31.4022V41.1759C10.8358 44.3935 12.865 48.4044 15.4555 50.3073L27.0084 58.7934C28.3937 59.8105 30.1716 60.3191 31.949 60.3191C33.7269 60.3191 35.5047 59.8105 36.89 58.7934L48.4434 50.3073C51.0338 48.4044 53.0631 44.3935 53.0631 41.1759V31.4022L56.9392 28.5549V60.2422C56.9392 61.2131 57.7253 62 58.6942 62C59.6636 62 60.4492 61.2131 60.4492 60.2422V23.4055C60.4492 23.4041 60.4492 23.4032 60.4492 23.4018ZM49.5531 41.1759C49.5531 43.2834 48.0645 46.2259 46.3675 47.472L34.8141 55.958C33.2881 57.079 30.6103 57.079 29.0843 55.958L17.5314 47.472C15.8344 46.2259 14.3458 43.2834 14.3458 41.1759V33.9807L27.0084 43.2816C28.3453 44.2635 30.0998 44.8046 31.949 44.8046C33.7982 44.8046 35.5527 44.2635 36.8895 43.2816L49.5526 33.9803V41.1759H49.5531ZM56.0466 24.8511L34.8137 40.4467C34.0852 40.9818 33.0413 41.2889 31.949 41.2889C30.8571 41.2889 29.8128 40.9818 29.0838 40.4467L7.85183 24.8511C7.27643 24.4281 6.95925 23.9136 6.95925 23.4018C6.95925 22.8905 7.27643 22.376 7.85183 21.953L29.0843 6.35791C29.8128 5.82233 30.8571 5.51562 31.949 5.51562C33.0413 5.51562 34.0852 5.82233 34.8141 6.35791L56.0466 21.9535C56.622 22.3755 56.9387 22.8896 56.9392 23.4009V23.405C56.9378 23.9159 56.6211 24.429 56.0466 24.8511Z" fill="#0D2C50"/>
</svg>
