<svg width="64" height="64" viewBox="0 0 64 64" fill="none" xmlns="http://www.w3.org/2000/svg">
<path d="M55.44 8H8.56C7.96117 8 7.36821 8.11795 6.81496 8.34711C6.26172 8.57627 5.75903 8.91216 5.33559 9.33559C4.48043 10.1908 4 11.3506 4 12.56V39.44C4 40.6494 4.48043 41.8092 5.33559 42.6644C5.75903 43.0878 6.26172 43.4237 6.81496 43.6529C7.36821 43.882 7.96117 44 8.56 44H28C28.5304 44 29.0391 43.7893 29.4142 43.4142C29.7893 43.0391 30 42.5304 30 42C30 41.4696 29.7893 40.9609 29.4142 40.5858C29.0391 40.2107 28.5304 40 28 40H8.56C8.48571 40.0028 8.41163 39.9902 8.34242 39.9631C8.27321 39.9359 8.21035 39.8948 8.15778 39.8422C8.10521 39.7897 8.06406 39.7268 8.03691 39.6576C8.00976 39.5884 7.99719 39.5143 8 39.44V12.56C7.99719 12.4857 8.00976 12.4116 8.03691 12.3424C8.06406 12.2732 8.10521 12.2103 8.15778 12.1578C8.21035 12.1052 8.27321 12.0641 8.34242 12.0369C8.41163 12.0098 8.48571 11.9972 8.56 12H55.44C55.5143 11.9972 55.5884 12.0098 55.6576 12.0369C55.7268 12.0641 55.7897 12.1052 55.8422 12.1578C55.8948 12.2103 55.9359 12.2732 55.9631 12.3424C55.9902 12.4116 56.0028 12.4857 56 12.56V39.44C56.0028 39.5143 55.9902 39.5884 55.9631 39.6576C55.9359 39.7268 55.8948 39.7897 55.8422 39.8422C55.7897 39.8948 55.7268 39.9359 55.6576 39.9631C55.5884 39.9902 55.5143 40.0028 55.44 40C54.9096 40 54.4009 40.2107 54.0258 40.5858C53.6507 40.9609 53.44 41.4696 53.44 42C53.44 42.5304 53.6507 43.0391 54.0258 43.4142C54.4009 43.7893 54.9096 44 55.44 44C56.6494 44 57.8092 43.5196 58.6644 42.6644C59.5196 41.8092 60 40.6494 60 39.44V12.56C60 11.3506 59.5196 10.1908 58.6644 9.33559C57.8092 8.48043 56.6494 8 55.44 8Z" fill="#002147"/>
<path d="M42.0001 20C39.3479 20 36.8044 21.0536 34.929 22.9289C33.0537 24.8043 32.0001 27.3478 32.0001 30C31.9899 32.1654 32.6927 34.2739 34.0001 36V54C34.0011 54.3618 34.1002 54.7166 34.2868 55.0265C34.4735 55.3365 34.7408 55.59 35.0601 55.76C35.3729 55.9206 35.7224 55.9959 36.0735 55.9783C36.4247 55.9608 36.7649 55.851 37.0601 55.66L42.0001 52.4L46.9001 55.66C47.2009 55.8581 47.5496 55.9713 47.9094 55.9876C48.2692 56.004 48.6268 55.9228 48.9443 55.7528C49.2618 55.5828 49.5275 55.3302 49.7133 55.0217C49.8992 54.7131 49.9983 54.3602 50.0001 54V36C51.3075 34.2739 52.0104 32.1654 52.0001 30C52.0001 27.3478 50.9465 24.8043 49.0712 22.9289C47.1958 21.0536 44.6523 20 42.0001 20ZM42.0001 24C43.1868 24 44.3468 24.3519 45.3335 25.0112C46.3202 25.6705 47.0893 26.6075 47.5434 27.7039C47.9975 28.8003 48.1163 30.0067 47.8848 31.1705C47.6533 32.3344 47.0819 33.4035 46.2428 34.2426C45.4036 35.0818 44.3345 35.6532 43.1707 35.8847C42.0068 36.1162 40.8004 35.9974 39.704 35.5433C38.6077 35.0892 37.6706 34.3201 37.0113 33.3334C36.352 32.3467 36.0001 31.1867 36.0001 30C36.0001 28.4087 36.6323 26.8826 37.7575 25.7574C38.8827 24.6321 40.4088 24 42.0001 24ZM43.1001 48.34C42.7736 48.1249 42.3911 48.0103 42.0001 48.0103C41.6091 48.0103 41.2267 48.1249 40.9001 48.34L38.0001 50.34V39.16C39.2618 39.7106 40.6235 39.9949 42.0001 39.9949C43.3767 39.9949 44.7385 39.7106 46.0001 39.16V50.26L43.1001 48.34Z" fill="#FF1949"/>
<path d="M26 16H14C13.4696 16 12.9609 16.2107 12.5858 16.5858C12.2107 16.9609 12 17.4696 12 18C12 18.5304 12.2107 19.0391 12.5858 19.4142C12.9609 19.7893 13.4696 20 14 20H26C26.5304 20 27.0391 19.7893 27.4142 19.4142C27.7893 19.0391 28 18.5304 28 18C28 17.4696 27.7893 16.9609 27.4142 16.5858C27.0391 16.2107 26.5304 16 26 16Z" fill="#002147"/>
<path d="M26 24H14C13.4696 24 12.9609 24.2107 12.5858 24.5858C12.2107 24.9609 12 25.4696 12 26C12 26.5304 12.2107 27.0391 12.5858 27.4142C12.9609 27.7893 13.4696 28 14 28H26C26.5304 28 27.0391 27.7893 27.4142 27.4142C27.7893 27.0391 28 26.5304 28 26C28 25.4696 27.7893 24.9609 27.4142 24.5858C27.0391 24.2107 26.5304 24 26 24Z" fill="#002147"/>
</svg>
