<svg width="64" height="64" viewBox="0 0 64 64" fill="none" xmlns="http://www.w3.org/2000/svg">
<path d="M52.1189 34.8772C51.1105 33.8688 49.7697 33.3134 48.3435 33.3134C46.9173 33.3134 45.5765 33.8683 44.568 34.8772L40.7081 38.7376C40.6833 33.936 36.7702 30.0371 31.9633 30.0371C27.1559 30.0371 23.2433 33.936 23.2185 38.7372L19.3581 34.8768C18.3496 33.8688 17.0088 33.3134 15.5826 33.3134C14.1565 33.3134 12.8157 33.8683 11.8076 34.8772C9.72565 36.9588 9.72565 40.3461 11.8072 42.4281L22.984 53.6045V59.3008C22.984 60.2394 23.7446 61.0001 24.6832 61.0001H39.2434C40.1819 61.0001 40.9426 60.2394 40.9426 59.3008V53.6045L52.1194 42.4281C54.2009 40.3461 54.2009 36.9588 52.1189 34.8772ZM31.9633 33.4355C34.9117 33.4355 37.3105 35.8344 37.3105 38.7832C37.3105 41.7316 34.9117 44.1309 31.9633 44.1309C29.0144 44.1309 26.6156 41.7316 26.6156 38.7832C26.6156 35.8344 29.0144 33.4355 31.9633 33.4355ZM49.7161 40.0249L38.042 51.6991C37.7234 52.0181 37.5442 52.45 37.5442 52.9009V57.6016H26.3824V52.9009C26.3824 52.45 26.2032 52.0177 25.8846 51.6991L14.21 40.0249C13.4533 39.2682 13.4538 38.0367 14.2104 37.28C14.5768 36.9136 15.0645 36.7119 15.5826 36.7119C16.1013 36.7119 16.5885 36.9136 16.9553 37.28L26.7063 47.0315C27.0249 47.3501 27.4573 47.5293 27.9077 47.5293H36.0184C36.4693 47.5293 36.9016 47.3501 37.2203 47.0315L46.9713 37.28C47.3381 36.9136 47.8253 36.7119 48.3439 36.7119C48.8621 36.7119 49.3498 36.9132 49.7161 37.28C50.4728 38.0367 50.4728 39.2682 49.7161 40.0249Z" fill="#002147"/>
<path d="M24.4521 19.1014L23.26 26.0492C23.1507 26.6868 23.4127 27.3311 23.9357 27.7112C24.2317 27.9263 24.5826 28.036 24.9349 28.036C25.2053 28.036 25.4765 27.9714 25.7256 27.8405L31.9654 24.5602L38.2052 27.8405C38.4534 27.9714 38.7251 28.036 38.9955 28.036C38.9972 28.036 38.999 28.036 39.0003 28.036C39.9376 28.0343 40.6973 27.274 40.6973 26.3368C40.6973 26.2063 40.6827 26.0793 40.6549 25.9567L39.4787 19.1014L44.5268 14.1808C44.9901 13.7294 45.1565 13.0542 44.9569 12.4386C44.7569 11.8235 44.225 11.3753 43.5851 11.2824L36.609 10.2686L33.4889 3.94696C33.2026 3.36728 32.6119 3 31.9654 3C31.3185 3 30.7277 3.36728 30.4414 3.94696L27.3218 10.2686L20.3457 11.2824C19.7054 11.3753 19.1739 11.8235 18.9739 12.4386C18.7739 13.0542 18.9407 13.7294 19.404 14.1808L24.4521 19.1014ZM28.6944 13.5033C29.248 13.4228 29.7259 13.0754 29.9737 12.574L31.9654 8.53883L33.9567 12.574C34.204 13.0754 34.6824 13.4228 35.236 13.5033L39.6893 14.1507L36.467 17.2916C36.0665 17.6819 35.8838 18.2443 35.978 18.7957L36.7387 23.2304L32.7562 21.1365C32.5084 21.006 32.2367 20.9409 31.9654 20.9409C31.6937 20.9409 31.422 21.006 31.1746 21.1365L27.1917 23.2304L27.9528 18.7957C28.0475 18.2443 27.8647 17.6819 27.4642 17.2916L24.2415 14.1502L28.6944 13.5033Z" fill="#FF1949"/>
</svg>
